<svg width="84" height="50" viewBox="0 0 84 50" fill="none" xmlns="http://www.w3.org/2000/svg">
<path d="M40.6416 10.9297L40.6476 38.8279C40.6476 39.0473 40.6537 39.2667 40.6659 39.4845C40.6661 39.5864 40.7426 39.6717 40.8436 39.6826C40.939 39.6978 41.0355 39.7054 41.1321 39.7054H46.817L46.8654 39.7053C47.1623 39.7041 47.3153 39.7035 47.3941 39.6268C47.4778 39.5452 47.4778 39.3776 47.4777 39.0318L47.4777 38.5597C47.4686 35.4405 47.4686 32.3212 47.4777 29.2019C47.4781 29.1032 47.4716 29.0036 47.4652 28.9038C47.4467 28.6184 47.4282 28.3313 47.5688 28.0593C47.8473 27.9552 48.1342 27.9695 48.4201 27.9838C48.5193 27.9888 48.6184 27.9937 48.717 27.9937H53.0168C53.3904 27.9922 53.4435 27.948 53.5134 27.6083C53.5435 27.4655 53.5592 27.32 53.5605 27.1741V22.5683C53.5559 22.3987 53.5329 22.2301 53.4921 22.0655C53.4268 21.7821 53.3737 21.7395 53.1064 21.7258H48.3647C48.2999 21.7258 48.2351 21.7269 48.1703 21.7281C48.0407 21.7305 47.9111 21.7329 47.7815 21.7258C47.5551 21.7258 47.4959 21.6541 47.4777 21.421C47.4762 21.3967 47.4762 21.3723 47.4777 21.3479V16.8153C47.4792 16.5258 47.5476 16.4618 47.8133 16.4481H53.5028C53.6972 16.4481 53.8916 16.445 54.0845 16.4344C54.2131 16.4344 54.3175 16.3303 54.3184 16.2013C54.329 16.0078 54.329 15.8128 54.329 15.6177V10.8657C54.329 10.8046 54.3293 10.7479 54.3296 10.6954C54.3314 10.3641 54.3323 10.1977 54.2498 10.1151C54.1672 10.0324 54.0008 10.0332 53.6677 10.0348C53.6171 10.0351 53.5628 10.0354 53.5043 10.0354H41.5529C41.462 10.0354 41.3801 10.0345 41.3063 10.0338C40.9741 10.0304 40.8064 10.0288 40.7224 10.1117C40.6369 10.1962 40.6381 10.3686 40.6406 10.7164C40.6411 10.7812 40.6416 10.8521 40.6416 10.9297Z" fill="white"/>
<path d="M63.1714 29.8418V21.6526C63.1914 21.1168 63.1742 20.5802 63.1198 20.0468C63.1029 19.8283 63.1095 19.6087 63.1396 19.3916C63.2109 18.4927 63.2276 17.5908 63.2094 16.6903C63.2094 16.4024 63.1426 16.3414 62.8616 16.3399H59.5825C59.4569 16.3399 59.3467 16.3415 59.25 16.3429C58.8987 16.348 58.7254 16.3505 58.6408 16.265C58.5585 16.1818 58.5605 16.0151 58.5645 15.6859C58.5658 15.5864 58.5672 15.4719 58.5664 15.3405C58.5614 14.3491 58.5631 13.3578 58.5648 12.3664L58.5648 12.356C58.5656 11.8638 58.5664 11.3716 58.5664 10.8794C58.5664 10.6844 58.5664 10.4894 58.5786 10.2959C58.5757 10.2348 58.5974 10.175 58.6388 10.1301C58.6802 10.0851 58.7378 10.0587 58.7988 10.0567C58.9674 10.0445 59.1375 10.0415 59.3076 10.0415H73.8881C74.6369 10.0415 74.6475 10.0415 74.6475 10.82V15.572C74.6475 15.7427 74.6475 15.9133 74.6338 16.084C74.6363 16.1458 74.6139 16.2059 74.5716 16.2509C74.5293 16.296 74.4707 16.322 74.4091 16.3232C74.2389 16.3338 74.0688 16.3384 73.9003 16.3399H70.9037C70.7093 16.3399 70.5148 16.3399 70.322 16.3506C70.1949 16.3436 70.0856 16.4397 70.0759 16.5669C70.066 16.6392 70.0599 16.7119 70.0577 16.7848C70.0488 17.1968 70.0353 17.609 70.0218 18.0212C69.9915 18.9486 69.9612 19.8764 69.9833 20.8025C70.0661 24.3603 70.0512 27.9182 70.0363 31.4765L70.0363 31.4793C70.029 33.2075 70.0218 34.9359 70.0258 36.6644C70.0258 37.188 70.0111 37.7137 69.9963 38.2397C69.9865 38.5905 69.9766 38.9422 69.9711 39.2926C69.9635 39.6948 69.921 39.7374 69.4927 39.739H65.9995C65.1975 39.739 64.3956 39.739 63.5937 39.7253C63.2626 39.7253 63.2125 39.6689 63.1927 39.3489C63.1775 39.0823 63.1775 38.8126 63.1775 38.5445C63.1735 35.6436 63.1714 32.7427 63.1714 29.8418Z" fill="white"/>
<path d="M12.0638 10.9922L12.0684 39.3566C12.0821 39.6795 12.1231 39.7146 12.4724 39.7283H23.2574C23.3141 39.7283 23.3709 39.7293 23.4276 39.7303C23.5408 39.7324 23.6538 39.7344 23.7662 39.7283C24.0623 39.7161 24.114 39.6689 24.1277 39.3931V33.6904C24.1269 33.2304 24.1467 33.0169 24.0498 32.9184C23.9514 32.8186 23.733 32.8372 23.2513 32.8372H19.3161C18.8605 32.8357 18.8043 32.7793 18.7936 32.3451C18.7754 31.76 18.7754 31.175 18.7754 30.5899V11.0653C18.7754 10.9922 18.7764 10.919 18.7774 10.8459C18.7795 10.6996 18.7815 10.5534 18.7754 10.4071C18.7617 10.0948 18.7101 10.0491 18.3729 10.0354H13.0526C12.494 10.0377 12.2474 10.005 12.1402 10.112C12.0352 10.2167 12.0638 10.4554 12.0638 10.9922Z" fill="white"/>
<path fill-rule="evenodd" clip-rule="evenodd" d="M0.968994 49.9957C0.855403 49.9957 0.755004 49.997 0.666286 49.9981C0.323475 50.0025 0.155052 50.0047 0.0739772 49.9216C-0.00429062 49.8414 -0.00118855 49.6818 0.00490818 49.3681C0.00685743 49.2678 0.0091128 49.1518 0.0091128 49.0175C0.0030376 33.2008 0 17.382 0 1.56125V0.610541C0 0.0315825 0.0136692 0.0132996 0.61967 0.00111101H82.6956C82.7719 0.00111101 82.8428 0.000791944 82.9085 0.000495776C83.3523 -0.00150362 83.5643 -0.00245851 83.6639 0.102848C83.7549 0.199112 83.7521 0.384172 83.7467 0.738401C83.7453 0.834749 83.7436 0.944657 83.7436 1.06761V48.9627C83.7436 49.0945 83.7455 49.2098 83.7472 49.3104C83.7529 49.6533 83.7558 49.8275 83.6703 49.9145C83.5823 50.0042 83.4006 50.0018 83.0317 49.9969C82.9297 49.9955 82.8131 49.994 82.6804 49.9941L0.968994 49.9957ZM77.4892 44.7287C77.7307 44.7287 77.9737 44.7211 78.2167 44.7058C78.3189 44.7042 78.4018 44.6224 78.405 44.5199C78.4202 44.2777 78.4308 44.0339 78.4308 43.7902V5.69318C78.4157 5.40523 78.3579 5.34124 78.0921 5.326C77.9144 5.31728 77.7347 5.31773 77.5554 5.31818L77.436 5.31838H36.398C36.2731 5.31838 36.1629 5.31684 36.0658 5.31548C35.7042 5.31042 35.5236 5.30789 35.4347 5.39693C35.3458 5.48581 35.3483 5.66592 35.3533 6.0258C35.3547 6.12666 35.3563 6.24164 35.3561 6.3727V31.891C35.3561 32.1348 35.3516 32.3786 35.3425 32.6224C35.3445 32.6839 35.3216 32.7436 35.2789 32.7878C35.2363 32.8321 35.1775 32.857 35.1162 32.857C34.9542 32.8684 34.7923 32.8693 34.6303 32.8701L34.533 32.8707H29.65C29.5301 32.8707 29.4246 32.8722 29.3318 32.8735C28.9905 32.8784 28.8204 32.8808 28.7368 32.797C28.6537 32.7137 28.6559 32.5454 28.6604 32.2097C28.6615 32.1229 28.6628 32.0246 28.6628 31.9139V6.24929C28.6628 6.16352 28.6635 6.08561 28.6641 6.01484C28.6672 5.67239 28.6688 5.49676 28.582 5.40764C28.4911 5.3143 28.3033 5.31539 27.9186 5.31761C27.8544 5.31798 27.7847 5.31838 27.709 5.31838H7.50895C7.18757 5.31838 6.8662 5.30934 6.54543 5.30031C6.42961 5.29705 6.31386 5.29379 6.19822 5.29096C5.96585 5.29096 5.89446 5.33819 5.89446 5.58349C5.88079 6.09541 5.8732 6.6058 5.8732 7.11772V42.9461C5.8732 43.2142 5.8732 43.4824 5.88231 43.7505C5.88652 43.8933 5.88721 44.0155 5.8878 44.1199C5.88948 44.4152 5.89036 44.5689 5.96759 44.6481C6.05137 44.734 6.22497 44.7323 6.58686 44.7288C6.66817 44.728 6.75899 44.7272 6.86042 44.7272L77.4892 44.7287Z" fill="white"/>
<path d="M40.6416 10.9297L40.6476 38.8279C40.6476 39.0473 40.6537 39.2667 40.6659 39.4845C40.6661 39.5864 40.7426 39.6717 40.8436 39.6826C40.939 39.6978 41.0355 39.7054 41.1321 39.7054H46.817L46.8654 39.7053C47.1623 39.7041 47.3153 39.7035 47.3941 39.6268C47.4778 39.5452 47.4778 39.3776 47.4777 39.0318L47.4777 38.5597C47.4686 35.4405 47.4686 32.3212 47.4777 29.2019C47.4781 29.1032 47.4716 29.0036 47.4652 28.9038C47.4467 28.6184 47.4282 28.3313 47.5688 28.0593C47.8473 27.9552 48.1342 27.9695 48.4201 27.9838C48.5193 27.9888 48.6184 27.9937 48.717 27.9937H53.0168C53.3904 27.9922 53.4435 27.948 53.5134 27.6083C53.5435 27.4655 53.5592 27.32 53.5605 27.1741V22.5683C53.5559 22.3987 53.5329 22.2301 53.4921 22.0655C53.4268 21.7821 53.3737 21.7395 53.1064 21.7258H48.3647C48.2999 21.7258 48.2351 21.7269 48.1703 21.7281C48.0407 21.7305 47.9111 21.7329 47.7815 21.7258C47.5551 21.7258 47.4959 21.6541 47.4777 21.421C47.4762 21.3967 47.4762 21.3723 47.4777 21.3479V16.8153C47.4792 16.5258 47.5476 16.4618 47.8133 16.4481H53.5028C53.6972 16.4481 53.8916 16.445 54.0845 16.4344C54.2131 16.4344 54.3175 16.3303 54.3184 16.2013C54.329 16.0078 54.329 15.8128 54.329 15.6177V10.8657C54.329 10.8046 54.3293 10.7479 54.3296 10.6954C54.3314 10.3641 54.3323 10.1977 54.2498 10.1151C54.1672 10.0324 54.0008 10.0332 53.6677 10.0348C53.6171 10.0351 53.5628 10.0354 53.5043 10.0354H41.5529C41.462 10.0354 41.3801 10.0345 41.3063 10.0338C40.9741 10.0304 40.8064 10.0288 40.7224 10.1117C40.6369 10.1962 40.6381 10.3686 40.6406 10.7164C40.6411 10.7812 40.6416 10.8521 40.6416 10.9297Z" stroke="#0081FE"/>
<path d="M63.1714 29.8418V21.6526C63.1914 21.1168 63.1742 20.5802 63.1198 20.0468C63.1029 19.8283 63.1095 19.6087 63.1396 19.3916C63.2109 18.4927 63.2276 17.5908 63.2094 16.6903C63.2094 16.4024 63.1426 16.3414 62.8616 16.3399H59.5825C59.4569 16.3399 59.3467 16.3415 59.25 16.3429C58.8987 16.348 58.7254 16.3505 58.6408 16.265C58.5585 16.1818 58.5605 16.0151 58.5645 15.6859C58.5658 15.5864 58.5672 15.4719 58.5664 15.3405C58.5614 14.3491 58.5631 13.3578 58.5648 12.3664L58.5648 12.356C58.5656 11.8638 58.5664 11.3716 58.5664 10.8794C58.5664 10.6844 58.5664 10.4894 58.5786 10.2959C58.5757 10.2348 58.5974 10.175 58.6388 10.1301C58.6802 10.0851 58.7378 10.0587 58.7988 10.0567C58.9674 10.0445 59.1375 10.0415 59.3076 10.0415H73.8881C74.6369 10.0415 74.6475 10.0415 74.6475 10.82V15.572C74.6475 15.7427 74.6475 15.9133 74.6338 16.084C74.6363 16.1458 74.6139 16.2059 74.5716 16.2509C74.5293 16.296 74.4707 16.322 74.4091 16.3232C74.2389 16.3338 74.0688 16.3384 73.9003 16.3399H70.9037C70.7093 16.3399 70.5148 16.3399 70.322 16.3506C70.1949 16.3436 70.0856 16.4397 70.0759 16.5669C70.066 16.6392 70.0599 16.7119 70.0577 16.7848C70.0488 17.1968 70.0353 17.609 70.0218 18.0212C69.9915 18.9486 69.9612 19.8764 69.9833 20.8025C70.0661 24.3603 70.0512 27.9182 70.0363 31.4765L70.0363 31.4793C70.029 33.2075 70.0218 34.9359 70.0258 36.6644C70.0258 37.188 70.0111 37.7137 69.9963 38.2397C69.9865 38.5905 69.9766 38.9422 69.9711 39.2926C69.9635 39.6948 69.921 39.7374 69.4927 39.739H65.9995C65.1975 39.739 64.3956 39.739 63.5937 39.7253C63.2626 39.7253 63.2125 39.6689 63.1927 39.3489C63.1775 39.0823 63.1775 38.8126 63.1775 38.5445C63.1735 35.6436 63.1714 32.7427 63.1714 29.8418Z" stroke="#0081FE"/>
<path d="M12.0638 10.9922L12.0684 39.3566C12.0821 39.6795 12.1231 39.7146 12.4724 39.7283H23.2574C23.3141 39.7283 23.3709 39.7293 23.4276 39.7303C23.5408 39.7324 23.6538 39.7344 23.7662 39.7283C24.0623 39.7161 24.114 39.6689 24.1277 39.3931V33.6904C24.1269 33.2304 24.1467 33.0169 24.0498 32.9184C23.9514 32.8186 23.733 32.8372 23.2513 32.8372H19.3161C18.8605 32.8357 18.8043 32.7793 18.7936 32.3451C18.7754 31.76 18.7754 31.175 18.7754 30.5899V11.0653C18.7754 10.9922 18.7764 10.919 18.7774 10.8459C18.7795 10.6996 18.7815 10.5534 18.7754 10.4071C18.7617 10.0948 18.7101 10.0491 18.3729 10.0354H13.0526C12.494 10.0377 12.2474 10.005 12.1402 10.112C12.0352 10.2167 12.0638 10.4554 12.0638 10.9922Z" stroke="#0081FE"/>
<path fill-rule="evenodd" clip-rule="evenodd" d="M0.968994 49.9957C0.855403 49.9957 0.755004 49.997 0.666286 49.9981C0.323475 50.0025 0.155052 50.0047 0.0739772 49.9216C-0.00429062 49.8414 -0.00118855 49.6818 0.00490818 49.3681C0.00685743 49.2678 0.0091128 49.1518 0.0091128 49.0175C0.0030376 33.2008 0 17.382 0 1.56125V0.610541C0 0.0315825 0.0136692 0.0132996 0.61967 0.00111101H82.6956C82.7719 0.00111101 82.8428 0.000791944 82.9085 0.000495776C83.3523 -0.00150362 83.5643 -0.00245851 83.6639 0.102848C83.7549 0.199112 83.7521 0.384172 83.7467 0.738401C83.7453 0.834749 83.7436 0.944657 83.7436 1.06761V48.9627C83.7436 49.0945 83.7455 49.2098 83.7472 49.3104C83.7529 49.6533 83.7558 49.8275 83.6703 49.9145C83.5823 50.0042 83.4006 50.0018 83.0317 49.9969C82.9297 49.9955 82.8131 49.994 82.6804 49.9941L0.968994 49.9957ZM77.4892 44.7287C77.7307 44.7287 77.9737 44.7211 78.2167 44.7058C78.3189 44.7042 78.4018 44.6224 78.405 44.5199C78.4202 44.2777 78.4308 44.0339 78.4308 43.7902V5.69318C78.4157 5.40523 78.3579 5.34124 78.0921 5.326C77.9144 5.31728 77.7347 5.31773 77.5554 5.31818L77.436 5.31838H36.398C36.2731 5.31838 36.1629 5.31684 36.0658 5.31548C35.7042 5.31042 35.5236 5.30789 35.4347 5.39693C35.3458 5.48581 35.3483 5.66592 35.3533 6.0258C35.3547 6.12666 35.3563 6.24164 35.3561 6.3727V31.891C35.3561 32.1348 35.3516 32.3786 35.3425 32.6224C35.3445 32.6839 35.3216 32.7436 35.2789 32.7878C35.2363 32.8321 35.1775 32.857 35.1162 32.857C34.9542 32.8684 34.7923 32.8693 34.6303 32.8701L34.533 32.8707H29.65C29.5301 32.8707 29.4246 32.8722 29.3318 32.8735C28.9905 32.8784 28.8204 32.8808 28.7368 32.797C28.6537 32.7137 28.6559 32.5454 28.6604 32.2097C28.6615 32.1229 28.6628 32.0246 28.6628 31.9139V6.24929C28.6628 6.16352 28.6635 6.08561 28.6641 6.01484C28.6672 5.67239 28.6688 5.49676 28.582 5.40764C28.4911 5.3143 28.3033 5.31539 27.9186 5.31761C27.8544 5.31798 27.7847 5.31838 27.709 5.31838H7.50895C7.18757 5.31838 6.8662 5.30934 6.54543 5.30031C6.42961 5.29705 6.31386 5.29379 6.19822 5.29096C5.96585 5.29096 5.89446 5.33819 5.89446 5.58349C5.88079 6.09541 5.8732 6.6058 5.8732 7.11772V42.9461C5.8732 43.2142 5.8732 43.4824 5.88231 43.7505C5.88652 43.8933 5.88721 44.0155 5.8878 44.1199C5.88948 44.4152 5.89036 44.5689 5.96759 44.6481C6.05137 44.734 6.22497 44.7323 6.58686 44.7288C6.66817 44.728 6.75899 44.7272 6.86042 44.7272L77.4892 44.7287Z" stroke="#0081FE"/>
</svg>
