<svg width="145.98381877022652" height="147" viewBox="-1 0 145.98381877022652 147" class="css-1j8o68f"><defs id="SvgjsDefs5660"></defs><g id="SvgjsG5661" featurekey="nRdZyp-0" transform="matrix(2.071197411003236,0,0,2.071197411003236,-21.71197411003236,12.113268608414245)" fill="#000000"><g xmlns="http://www.w3.org/2000/svg"><path d="M45.375,55.125C33.365,55.125,23.119,47,19.086,37H17.25c0,15,12.592,28.125,28.125,28.125S73.5,52,73.5,37h-1.837   C67.631,47,57.385,55.125,45.375,55.125z"></path><circle cx="12.75" cy="29.25" r="2.75"></circle><circle cx="77.25" cy="29.25" r="2.75"></circle></g></g><g id="SvgjsG5662" featurekey="Q4qmbg-0" transform="matrix(6.483300395034749,0,0,6.483300395034749,35.332028167304074,-59.703334974627396)" fill="#000000"><path d="M10.82 15.08 l0 0.66 l-7.04 0 c0 1.16 1.18 1.98 2.16 1.98 c0.96 0 1.84 -0.38 2.3 -1.22 l1.98 1.82 c-0.8 1.08 -2.02 1.84 -4.28 1.84 c-3.24 0 -5.22 -2.16 -5.22 -5.08 s1.92 -5.1 5.04 -5.1 s5.06 2.14 5.06 5.1 z M3.84 13.86 l3.88 0 c-0.16 -0.94 -0.84 -1.44 -1.96 -1.44 c-1.08 0 -1.74 0.58 -1.92 1.44 z"></path></g></svg>
